<?xml version="1.0" encoding="utf-8" ?>
<svg baseProfile="full" height="1000" version="1.1" width="800" xmlns="http://www.w3.org/2000/svg" xmlns:ev="http://www.w3.org/2001/xml-events" xmlns:xlink="http://www.w3.org/1999/xlink"><defs /><rect fill="#000000" height="1000" width="800" x="0" y="0" /><line stroke="#444444" x1="10" x2="10" y1="0" y2="1000" /><line stroke="#444444" x1="20" x2="20" y1="0" y2="1000" /><line stroke="#444444" x1="30" x2="30" y1="0" y2="1000" /><line stroke="#444444" x1="40" x2="40" y1="0" y2="1000" /><line stroke="#444444" x1="50" x2="50" y1="0" y2="1000" /><line stroke="#444444" x1="60" x2="60" y1="0" y2="1000" /><line stroke="#444444" x1="70" x2="70" y1="0" y2="1000" /><line stroke="#444444" x1="80" x2="80" y1="0" y2="1000" /><line stroke="#444444" x1="90" x2="90" y1="0" y2="1000" /><line stroke="#444444" x1="100" x2="100" y1="0" y2="1000" /><line stroke="#444444" x1="110" x2="110" y1="0" y2="1000" /><line stroke="#444444" x1="120" x2="120" y1="0" y2="1000" /><line stroke="#444444" x1="130" x2="130" y1="0" y2="1000" /><line stroke="#444444" x1="140" x2="140" y1="0" y2="1000" /><line stroke="#444444" x1="150" x2="150" y1="0" y2="1000" /><line stroke="#444444" x1="160" x2="160" y1="0" y2="1000" /><line stroke="#444444" x1="170" x2="170" y1="0" y2="1000" /><line stroke="#444444" x1="180" x2="180" y1="0" y2="1000" /><line stroke="#444444" x1="190" x2="190" y1="0" y2="1000" /><line stroke="#444444" x1="200" x2="200" y1="0" y2="1000" /><line stroke="#444444" x1="210" x2="210" y1="0" y2="1000" /><line stroke="#444444" x1="220" x2="220" y1="0" y2="1000" /><line stroke="#444444" x1="230" x2="230" y1="0" y2="1000" /><line stroke="#444444" x1="240" x2="240" y1="0" y2="1000" /><line stroke="#444444" x1="250" x2="250" y1="0" y2="1000" /><line stroke="#444444" x1="260" x2="260" y1="0" y2="1000" /><line stroke="#444444" x1="270" x2="270" y1="0" y2="1000" /><line stroke="#444444" x1="280" x2="280" y1="0" y2="1000" /><line stroke="#444444" x1="290" x2="290" y1="0" y2="1000" /><line stroke="#444444" x1="300" x2="300" y1="0" y2="1000" /><line stroke="#444444" x1="310" x2="310" y1="0" y2="1000" /><line stroke="#444444" x1="320" x2="320" y1="0" y2="1000" /><line stroke="#444444" x1="330" x2="330" y1="0" y2="1000" /><line stroke="#444444" x1="340" x2="340" y1="0" y2="1000" /><line stroke="#444444" x1="350" x2="350" y1="0" y2="1000" /><line stroke="#444444" x1="360" x2="360" y1="0" y2="1000" /><line stroke="#444444" x1="370" x2="370" y1="0" y2="1000" /><line stroke="#444444" x1="380" x2="380" y1="0" y2="1000" /><line stroke="#444444" x1="390" x2="390" y1="0" y2="1000" /><line stroke="#444444" x1="400" x2="400" y1="0" y2="1000" /><line stroke="#444444" x1="410" x2="410" y1="0" y2="1000" /><line stroke="#444444" x1="420" x2="420" y1="0" y2="1000" /><line stroke="#444444" x1="430" x2="430" y1="0" y2="1000" /><line stroke="#444444" x1="440" x2="440" y1="0" y2="1000" /><line stroke="#444444" x1="450" x2="450" y1="0" y2="1000" /><line stroke="#444444" x1="460" x2="460" y1="0" y2="1000" /><line stroke="#444444" x1="470" x2="470" y1="0" y2="1000" /><line stroke="#444444" x1="480" x2="480" y1="0" y2="1000" /><line stroke="#444444" x1="490" x2="490" y1="0" y2="1000" /><line stroke="#444444" x1="500" x2="500" y1="0" y2="1000" /><line stroke="#444444" x1="510" x2="510" y1="0" y2="1000" /><line stroke="#444444" x1="520" x2="520" y1="0" y2="1000" /><line stroke="#444444" x1="530" x2="530" y1="0" y2="1000" /><line stroke="#444444" x1="540" x2="540" y1="0" y2="1000" /><line stroke="#444444" x1="550" x2="550" y1="0" y2="1000" /><line stroke="#444444" x1="560" x2="560" y1="0" y2="1000" /><line stroke="#444444" x1="570" x2="570" y1="0" y2="1000" /><line stroke="#444444" x1="580" x2="580" y1="0" y2="1000" /><line stroke="#444444" x1="590" x2="590" y1="0" y2="1000" /><line stroke="#444444" x1="600" x2="600" y1="0" y2="1000" /><line stroke="#444444" x1="610" x2="610" y1="0" y2="1000" /><line stroke="#444444" x1="620" x2="620" y1="0" y2="1000" /><line stroke="#444444" x1="630" x2="630" y1="0" y2="1000" /><line stroke="#444444" x1="640" x2="640" y1="0" y2="1000" /><line stroke="#444444" x1="650" x2="650" y1="0" y2="1000" /><line stroke="#444444" x1="660" x2="660" y1="0" y2="1000" /><line stroke="#444444" x1="670" x2="670" y1="0" y2="1000" /><line stroke="#444444" x1="680" x2="680" y1="0" y2="1000" /><line stroke="#444444" x1="690" x2="690" y1="0" y2="1000" /><line stroke="#444444" x1="700" x2="700" y1="0" y2="1000" /><line stroke="#444444" x1="710" x2="710" y1="0" y2="1000" /><line stroke="#444444" x1="720" x2="720" y1="0" y2="1000" /><line stroke="#444444" x1="730" x2="730" y1="0" y2="1000" /><line stroke="#444444" x1="740" x2="740" y1="0" y2="1000" /><line stroke="#444444" x1="750" x2="750" y1="0" y2="1000" /><line stroke="#444444" x1="760" x2="760" y1="0" y2="1000" /><line stroke="#444444" x1="770" x2="770" y1="0" y2="1000" /><line stroke="#444444" x1="780" x2="780" y1="0" y2="1000" /><line stroke="#444444" x1="790" x2="790" y1="0" y2="1000" /><line stroke="#444444" x1="0" x2="800" y1="10" y2="10" /><line stroke="#444444" x1="0" x2="800" y1="20" y2="20" /><line stroke="#444444" x1="0" x2="800" y1="30" y2="30" /><line stroke="#444444" x1="0" x2="800" y1="40" y2="40" /><line stroke="#444444" x1="0" x2="800" y1="50" y2="50" /><line stroke="#444444" x1="0" x2="800" y1="60" y2="60" /><line stroke="#444444" x1="0" x2="800" y1="70" y2="70" /><line stroke="#444444" x1="0" x2="800" y1="80" y2="80" /><line stroke="#444444" x1="0" x2="800" y1="90" y2="90" /><line stroke="#444444" x1="0" x2="800" y1="100" y2="100" /><line stroke="#444444" x1="0" x2="800" y1="110" y2="110" /><line stroke="#444444" x1="0" x2="800" y1="120" y2="120" /><line stroke="#444444" x1="0" x2="800" y1="130" y2="130" /><line stroke="#444444" x1="0" x2="800" y1="140" y2="140" /><line stroke="#444444" x1="0" x2="800" y1="150" y2="150" /><line stroke="#444444" x1="0" x2="800" y1="160" y2="160" /><line stroke="#444444" x1="0" x2="800" y1="170" y2="170" /><line stroke="#444444" x1="0" x2="800" y1="180" y2="180" /><line stroke="#444444" x1="0" x2="800" y1="190" y2="190" /><line stroke="#444444" x1="0" x2="800" y1="200" y2="200" /><line stroke="#444444" x1="0" x2="800" y1="210" y2="210" /><line stroke="#444444" x1="0" x2="800" y1="220" y2="220" /><line stroke="#444444" x1="0" x2="800" y1="230" y2="230" /><line stroke="#444444" x1="0" x2="800" y1="240" y2="240" /><line stroke="#444444" x1="0" x2="800" y1="250" y2="250" /><line stroke="#444444" x1="0" x2="800" y1="260" y2="260" /><line stroke="#444444" x1="0" x2="800" y1="270" y2="270" /><line stroke="#444444" x1="0" x2="800" y1="280" y2="280" /><line stroke="#444444" x1="0" x2="800" y1="290" y2="290" /><line stroke="#444444" x1="0" x2="800" y1="300" y2="300" /><line stroke="#444444" x1="0" x2="800" y1="310" y2="310" /><line stroke="#444444" x1="0" x2="800" y1="320" y2="320" /><line stroke="#444444" x1="0" x2="800" y1="330" y2="330" /><line stroke="#444444" x1="0" x2="800" y1="340" y2="340" /><line stroke="#444444" x1="0" x2="800" y1="350" y2="350" /><line stroke="#444444" x1="0" x2="800" y1="360" y2="360" /><line stroke="#444444" x1="0" x2="800" y1="370" y2="370" /><line stroke="#444444" x1="0" x2="800" y1="380" y2="380" /><line stroke="#444444" x1="0" x2="800" y1="390" y2="390" /><line stroke="#444444" x1="0" x2="800" y1="400" y2="400" /><line stroke="#444444" x1="0" x2="800" y1="410" y2="410" /><line stroke="#444444" x1="0" x2="800" y1="420" y2="420" /><line stroke="#444444" x1="0" x2="800" y1="430" y2="430" /><line stroke="#444444" x1="0" x2="800" y1="440" y2="440" /><line stroke="#444444" x1="0" x2="800" y1="450" y2="450" /><line stroke="#444444" x1="0" x2="800" y1="460" y2="460" /><line stroke="#444444" x1="0" x2="800" y1="470" y2="470" /><line stroke="#444444" x1="0" x2="800" y1="480" y2="480" /><line stroke="#444444" x1="0" x2="800" y1="490" y2="490" /><line stroke="#444444" x1="0" x2="800" y1="500" y2="500" /><line stroke="#444444" x1="0" x2="800" y1="510" y2="510" /><line stroke="#444444" x1="0" x2="800" y1="520" y2="520" /><line stroke="#444444" x1="0" x2="800" y1="530" y2="530" /><line stroke="#444444" x1="0" x2="800" y1="540" y2="540" /><line stroke="#444444" x1="0" x2="800" y1="550" y2="550" /><line stroke="#444444" x1="0" x2="800" y1="560" y2="560" /><line stroke="#444444" x1="0" x2="800" y1="570" y2="570" /><line stroke="#444444" x1="0" x2="800" y1="580" y2="580" /><line stroke="#444444" x1="0" x2="800" y1="590" y2="590" /><line stroke="#444444" x1="0" x2="800" y1="600" y2="600" /><line stroke="#444444" x1="0" x2="800" y1="610" y2="610" /><line stroke="#444444" x1="0" x2="800" y1="620" y2="620" /><line stroke="#444444" x1="0" x2="800" y1="630" y2="630" /><line stroke="#444444" x1="0" x2="800" y1="640" y2="640" /><line stroke="#444444" x1="0" x2="800" y1="650" y2="650" /><line stroke="#444444" x1="0" x2="800" y1="660" y2="660" /><line stroke="#444444" x1="0" x2="800" y1="670" y2="670" /><line stroke="#444444" x1="0" x2="800" y1="680" y2="680" /><line stroke="#444444" x1="0" x2="800" y1="690" y2="690" /><line stroke="#444444" x1="0" x2="800" y1="700" y2="700" /><line stroke="#444444" x1="0" x2="800" y1="710" y2="710" /><line stroke="#444444" x1="0" x2="800" y1="720" y2="720" /><line stroke="#444444" x1="0" x2="800" y1="730" y2="730" /><line stroke="#444444" x1="0" x2="800" y1="740" y2="740" /><line stroke="#444444" x1="0" x2="800" y1="750" y2="750" /><line stroke="#444444" x1="0" x2="800" y1="760" y2="760" /><line stroke="#444444" x1="0" x2="800" y1="770" y2="770" /><line stroke="#444444" x1="0" x2="800" y1="780" y2="780" /><line stroke="#444444" x1="0" x2="800" y1="790" y2="790" /><line stroke="#444444" x1="0" x2="800" y1="800" y2="800" /><line stroke="#444444" x1="0" x2="800" y1="810" y2="810" /><line stroke="#444444" x1="0" x2="800" y1="820" y2="820" /><line stroke="#444444" x1="0" x2="800" y1="830" y2="830" /><line stroke="#444444" x1="0" x2="800" y1="840" y2="840" /><line stroke="#444444" x1="0" x2="800" y1="850" y2="850" /><line stroke="#444444" x1="0" x2="800" y1="860" y2="860" /><line stroke="#444444" x1="0" x2="800" y1="870" y2="870" /><line stroke="#444444" x1="0" x2="800" y1="880" y2="880" /><line stroke="#444444" x1="0" x2="800" y1="890" y2="890" /><line stroke="#444444" x1="0" x2="800" y1="900" y2="900" /><line stroke="#444444" x1="0" x2="800" y1="910" y2="910" /><line stroke="#444444" x1="0" x2="800" y1="920" y2="920" /><line stroke="#444444" x1="0" x2="800" y1="930" y2="930" /><line stroke="#444444" x1="0" x2="800" y1="940" y2="940" /><line stroke="#444444" x1="0" x2="800" y1="950" y2="950" /><line stroke="#444444" x1="0" x2="800" y1="960" y2="960" /><line stroke="#444444" x1="0" x2="800" y1="970" y2="970" /><line stroke="#444444" x1="0" x2="800" y1="980" y2="980" /><line stroke="#444444" x1="0" x2="800" y1="990" y2="990" /><line stroke="#444444" stroke-width="2" x1="100" x2="100" y1="0" y2="1000" /><line stroke="#444444" stroke-width="2" x1="200" x2="200" y1="0" y2="1000" /><line stroke="#444444" stroke-width="2" x1="300" x2="300" y1="0" y2="1000" /><line stroke="#444444" stroke-width="2" x1="400" x2="400" y1="0" y2="1000" /><line stroke="#444444" stroke-width="2" x1="500" x2="500" y1="0" y2="1000" /><line stroke="#444444" stroke-width="2" x1="600" x2="600" y1="0" y2="1000" /><line stroke="#444444" stroke-width="2" x1="700" x2="700" y1="0" y2="1000" /><line stroke="#444444" stroke-width="2" x1="0" x2="800" y1="100" y2="100" /><line stroke="#444444" stroke-width="2" x1="0" x2="800" y1="200" y2="200" /><line stroke="#444444" stroke-width="2" x1="0" x2="800" y1="300" y2="300" /><line stroke="#444444" stroke-width="2" x1="0" x2="800" y1="400" y2="400" /><line stroke="#444444" stroke-width="2" x1="0" x2="800" y1="500" y2="500" /><line stroke="#444444" stroke-width="2" x1="0" x2="800" y1="600" y2="600" /><line stroke="#444444" stroke-width="2" x1="0" x2="800" y1="700" y2="700" /><line stroke="#444444" stroke-width="2" x1="0" x2="800" y1="800" y2="800" /><line stroke="#444444" stroke-width="2" x1="0" x2="800" y1="900" y2="900" /><line stroke="#444444" stroke-width="4" x1="500" x2="500" y1="0" y2="1000" /><line stroke="#444444" stroke-width="4" x1="0" x2="800" y1="300" y2="300" /><g id="lines"><path d="M 657.0710678118655,157.07106781186548 L 402.9289321881345,411.2132034355964 A 10 10 0 0,0 400.0 418.2842712474619 L 400,700" fill="none" stroke="#777777" stroke-linecap="round" stroke-linejoin="round" stroke-width="4" /><path d="M 600,400 L 647.0710678118654,352.9289321881345 A 10 10 0 0,0 650.0 345.85786437626905 L 650.0,254.14213562373095 A 10 10 0 0,0 647.0710678118654 247.07106781186548 L 607.0710678118655,207.07106781186548 A 10 10 0 0,0 592.9289321881345 207.07106781186548 L 300,500" fill="none" stroke="#00FF00" stroke-linecap="round" stroke-linejoin="round" stroke-width="4" /><path d="M 607.0710678118655,407.0710678118655 L 657.0710678118655,357.0710678118655 A 10 10 0 0,0 660.0 350.0 L 660.0,250.0 A 10 10 0 0,0 657.0710678118654 242.92893218813452 L 477.0710678118655,62.928932188134524 A 10 10 0 0,0 470.0 60.0 L 430.0,60.0 A 10 10 0 0,0 420.0 70.0 L 420.0,70.0 A 10 10 0 0,0 430.0 80.0 L 490.0,80.0 A 10 10 0 0,1 497.0710678118655 82.92893218813452 L 514.142135623731,100" fill="none" stroke="#FFFF00" stroke-linecap="round" stroke-linejoin="round" stroke-width="4" /><path d="M 480,90 L 480.0,275.85786437626905 A 10 10 0 0,0 482.9289321881345 282.9289321881345 L 647.0710678118654,447.0710678118655 A 10 10 0 0,1 650.0 454.14213562373095 L 650,700" fill="none" stroke="#FF0000" stroke-linecap="round" stroke-linejoin="round" stroke-width="4" /><path d="M 650,350 L 650.0,440.0 A 10 10 0 0,0 660.0 450.0 L 900,450" fill="none" stroke="#7777FF" stroke-linecap="round" stroke-linejoin="round" stroke-width="2" /></g><g id="stops"><circle cx="597.0710678118655" cy="217.07106781186548" fill="#000000" r="3.75" stroke="#777777" stroke-width="2.5" /><circle cx="557.0710678118655" cy="257.0710678118655" fill="#000000" r="3.75" stroke="#777777" stroke-width="2.5" /><circle cx="507.0710678118655" cy="307.0710678118655" fill="#000000" r="3.75" stroke="#777777" stroke-width="2.5" /><circle cx="600" cy="400" fill="#000000" r="3.75" stroke="#00FF00" stroke-width="2.5" /><circle cx="640" cy="360" fill="#000000" r="3.75" stroke="#00FF00" stroke-width="2.5" /><circle cx="650" cy="300" fill="#000000" r="3.75" stroke="#00FF00" stroke-width="2.5" /><circle cx="640" cy="240" fill="#000000" r="3.75" stroke="#00FF00" stroke-width="2.5" /><circle cx="590" cy="210" fill="#000000" r="3.75" stroke="#00FF00" stroke-width="2.5" /><circle cx="550" cy="250" fill="#000000" r="3.75" stroke="#00FF00" stroke-width="2.5" /><circle cx="500" cy="300" fill="#000000" r="3.75" stroke="#00FF00" stroke-width="2.5" /><circle cx="607.0710678118655" cy="407.0710678118655" fill="#000000" r="3.75" stroke="#FFFF00" stroke-width="2.5" /><circle cx="647.0710678118655" cy="367.0710678118655" fill="#000000" r="3.75" stroke="#FFFF00" stroke-width="2.5" /><circle cx="660" cy="300" fill="#000000" r="3.75" stroke="#FFFF00" stroke-width="2.5" /><circle cx="647.0710678118655" cy="232.92893218813452" fill="#000000" r="3.75" stroke="#FFFF00" stroke-width="2.5" /><circle cx="607.0710678118655" cy="192.92893218813452" fill="#000000" r="3.75" stroke="#FFFF00" stroke-width="2.5" /><circle cx="487.0710678118655" cy="72.92893218813452" fill="#000000" r="3.75" stroke="#FFFF00" stroke-width="2.5" /><circle cx="480" cy="80" fill="#000000" r="3.75" stroke="#FFFF00" stroke-width="2.5" /><circle cx="480" cy="90" fill="#000000" r="3.75" stroke="#FF0000" stroke-width="2.5" /><circle cx="480" cy="200" fill="#000000" r="3.75" stroke="#FF0000" stroke-width="2.5" /><circle cx="492.9289321881345" cy="292.9289321881345" fill="#000000" r="3.75" stroke="#FF0000" stroke-width="2.5" /><circle cx="540" cy="340" fill="#000000" r="3.75" stroke="#FF0000" stroke-width="2.5" /><circle cx="580" cy="380" fill="#000000" r="3.75" stroke="#FF0000" stroke-width="2.5" /><circle cx="614.142135623731" cy="414.14213562373095" fill="#000000" r="3.75" stroke="#FF0000" stroke-width="2.5" /><circle cx="650" cy="350" fill="#000000" r="3.75" stroke="#7777FF" stroke-width="2.5" /><circle cx="650" cy="410" fill="#000000" r="3.75" stroke="#7777FF" stroke-width="2.5" /><circle cx="720" cy="450" fill="#000000" r="3.75" stroke="#7777FF" stroke-width="2.5" /><circle cx="850" cy="450" fill="#000000" r="3.75" stroke="#7777FF" stroke-width="2.5" /></g></svg>